<?xml version="1.0" standalone="no"?><!DOCTYPE svg PUBLIC "-//W3C//DTD SVG 1.1//EN" "http://www.w3.org/Graphics/SVG/1.1/DTD/svg11.dtd"><svg t="1542165811599" class="icon" style="" viewBox="0 0 1024 1024" version="1.1" xmlns="http://www.w3.org/2000/svg" p-id="1726" xmlns:xlink="http://www.w3.org/1999/xlink" width="200" height="200"><defs><style type="text/css"></style></defs><path d="M981.333333 471.466667c0-260.266667-209.066667-469.333333-469.333333-469.333334S42.666667 211.2 42.666667 471.466667C42.666667 691.2 194.133333 874.666667 398.933333 925.866667L343.466667 981.333333h-123.733334c-10.666667 0-19.2 8.533333-19.2 21.333334s8.533333 21.333333 19.2 21.333333h599.466667c10.666667 0 19.2-8.533333 19.2-21.333333s-8.533333-21.333333-19.2-21.333334h-138.666667l-55.466666-55.466666C829.866667 874.666667 981.333333 691.2 981.333333 471.466667zM403.2 979.2l46.933333-44.8c21.333333 2.133333 40.533333 4.266667 61.866667 4.266667s40.533333-2.133333 61.866667-6.4l46.933333 44.8H403.2z m108.8-81.066667c-234.666667 0-426.666667-192-426.666667-426.666666s192-426.666667 426.666667-426.666667 426.666667 192 426.666667 426.666667-192 426.666667-426.666667 426.666666z" fill="#f4f4f5" p-id="1727"></path><path d="M512 300.8c-93.866667 0-170.666667 76.8-170.666667 170.666667s76.8 170.666667 170.666667 170.666666 170.666667-76.8 170.666667-170.666666-76.8-170.666667-170.666667-170.666667z m0 298.666667c-70.4 0-128-57.6-128-128s57.6-128 128-128 128 57.6 128 128-57.6 128-128 128z" fill="#f4f4f5" p-id="1728"></path><path d="M512 151.466667m-21.333333 0a21.333333 21.333333 0 1 0 42.666666 0 21.333333 21.333333 0 1 0-42.666666 0Z" fill="#f4f4f5" p-id="1729"></path></svg>