<?xml version="1.0" standalone="no"?><!DOCTYPE svg PUBLIC "-//W3C//DTD SVG 1.1//EN" "http://www.w3.org/Graphics/SVG/1.1/DTD/svg11.dtd"><svg t="1542617352946" class="icon" style="" viewBox="0 0 1024 1024" version="1.1" xmlns="http://www.w3.org/2000/svg" p-id="4392" xmlns:xlink="http://www.w3.org/1999/xlink" width="200" height="200"><defs><style type="text/css"></style></defs><path d="M704 384h-64v384h64V384z m-320 0h-64v384h64V384z m288-256V96c0-54.4-41.6-96-96-96h-128c-54.4 0-96 41.6-96 96v32H0v64h128v704c0 70.4 57.6 128 128 128h512c70.4 0 128-57.6 128-128V192h128V128H672z m-256-32c0-19.2 12.8-32 32-32h128c19.2 0 32 12.8 32 32v32h-192V96z m416 800c0 35.2-28.8 64-64 64H256c-35.2 0-64-28.8-64-64V192h640v704z m-288-512h-64v384h64V384z" fill="" p-id="4393"></path></svg>