<?xml version="1.0" standalone="no"?><!DOCTYPE svg PUBLIC "-//W3C//DTD SVG 1.1//EN" "http://www.w3.org/Graphics/SVG/1.1/DTD/svg11.dtd"><svg t="1543288105783" class="icon" style="" viewBox="0 0 1024 1024" version="1.1" xmlns="http://www.w3.org/2000/svg" p-id="3524" xmlns:xlink="http://www.w3.org/1999/xlink" width="200" height="200"><defs><style type="text/css"></style></defs><path d="M978.346667 853.333333H341.333333a96 96 0 0 0-180.906666 0H45.653333a32 32 0 0 0 0 64h116.053334a96 96 0 0 0 180.906666 0h635.733334a32 32 0 0 0 0-64zM978.346667 16.213333H45.653333a32 32 0 0 0-32 32v650.24a32 32 0 0 0 32 32h932.693334a32 32 0 0 0 32-32V48.213333a32 32 0 0 0-32-32z m-32 650.24H77.653333V80.213333h868.693334z" fill="#f4f4f5" p-id="3525"></path><path d="M430.08 491.093333a32 32 0 0 0 33.28-2.133333l128-89.173333a32 32 0 0 0 0-52.48l-128-89.173334a32 32 0 0 0-50.346667 26.026667v178.346667a32 32 0 0 0 17.066667 28.586666z m46.933333-145.066666l39.68 27.733333-39.68 27.733333z" fill="#f4f4f5" p-id="3526"></path></svg>